<?xml version="1.0" encoding="UTF-8" standalone="no"?>
<!DOCTYPE svg PUBLIC "-//W3C//DTD SVG 1.1//EN"
 "http://www.w3.org/Graphics/SVG/1.1/DTD/svg11.dtd">
<!-- Generated by graphviz version 2.42.4 (0)
 -->
<!-- Title: file&#45;processing&#45;example Pages: 1 -->
<svg width="852pt" height="132pt"
 viewBox="0.00 0.00 852.00 132.24" xmlns="http://www.w3.org/2000/svg" xmlns:xlink="http://www.w3.org/1999/xlink">
<g id="graph0" class="graph" transform="scale(1 1) rotate(0) translate(4 128.24)">
<title>file&#45;processing&#45;example</title>
<polygon fill="white" stroke="transparent" points="-4,4 -4,-128.24 848,-128.24 848,4 -4,4"/>
<!-- reader -->
<g id="node1" class="node">
<title>reader</title>
<polygon fill="none" stroke="black" points="0,-72.5 0,-118.5 186,-118.5 186,-72.5 0,-72.5"/>
<text text-anchor="middle" x="32" y="-91.8" font-family="Times,serif" font-size="14.00">reader</text>
<polyline fill="none" stroke="black" points="64,-72.5 64,-118.5 "/>
<text text-anchor="middle" x="125" y="-103.3" font-family="Times,serif" font-size="14.00"> </text>
<polyline fill="none" stroke="black" points="64,-95.5 186,-95.5 "/>
<text text-anchor="middle" x="125" y="-80.3" font-family="Times,serif" font-size="14.00">output (string)</text>
</g>
<!-- grepper -->
<g id="node2" class="node">
<title>grepper</title>
<polygon fill="none" stroke="black" points="222,-48.5 222,-94.5 418,-94.5 418,-48.5 222,-48.5"/>
<text text-anchor="middle" x="259" y="-67.8" font-family="Times,serif" font-size="14.00">grepper</text>
<polyline fill="none" stroke="black" points="296,-48.5 296,-94.5 "/>
<text text-anchor="middle" x="357" y="-79.3" font-family="Times,serif" font-size="14.00">input (string)</text>
<polyline fill="none" stroke="black" points="296,-71.5 418,-71.5 "/>
<text text-anchor="middle" x="357" y="-56.3" font-family="Times,serif" font-size="14.00">output (string)</text>
</g>
<!-- reader&#45;&gt;grepper -->
<g id="edge1" class="edge">
<title>reader:output&#45;&gt;grepper:input</title>
<path fill="none" stroke="black" d="M186,-83.5C202.73,-83.5 205.46,-91.97 222,-94.5 277.6,-103.02 347.6,-149.18 356.14,-105.48"/>
<polygon fill="black" stroke="black" points="359.62,-105.76 357,-95.5 352.65,-105.16 359.62,-105.76"/>
</g>
<!-- upper -->
<g id="node3" class="node">
<title>upper</title>
<polygon fill="none" stroke="black" points="454,-24.5 454,-70.5 635,-70.5 635,-24.5 454,-24.5"/>
<text text-anchor="middle" x="483.5" y="-43.8" font-family="Times,serif" font-size="14.00">upper</text>
<polyline fill="none" stroke="black" points="513,-24.5 513,-70.5 "/>
<text text-anchor="middle" x="574" y="-55.3" font-family="Times,serif" font-size="14.00">input (string)</text>
<polyline fill="none" stroke="black" points="513,-47.5 635,-47.5 "/>
<text text-anchor="middle" x="574" y="-32.3" font-family="Times,serif" font-size="14.00">output (string)</text>
</g>
<!-- grepper&#45;&gt;upper -->
<g id="edge2" class="edge">
<title>grepper:output&#45;&gt;upper:input</title>
<path fill="none" stroke="black" d="M418,-59.5C434.73,-59.5 437.46,-67.96 454,-70.5 503.01,-78.03 564.55,-118.38 573.42,-81.83"/>
<polygon fill="black" stroke="black" points="576.94,-81.81 574.5,-71.5 569.98,-81.08 576.94,-81.81"/>
</g>
<!-- writer -->
<g id="node4" class="node">
<title>writer</title>
<polygon fill="none" stroke="black" points="671,-0.5 671,-46.5 844,-46.5 844,-0.5 671,-0.5"/>
<text text-anchor="middle" x="701.5" y="-19.8" font-family="Times,serif" font-size="14.00">writer</text>
<polyline fill="none" stroke="black" points="732,-0.5 732,-46.5 "/>
<text text-anchor="middle" x="788" y="-31.3" font-family="Times,serif" font-size="14.00">input (string)</text>
<polyline fill="none" stroke="black" points="732,-23.5 844,-23.5 "/>
<text text-anchor="middle" x="788" y="-8.3" font-family="Times,serif" font-size="14.00"> </text>
</g>
<!-- upper&#45;&gt;writer -->
<g id="edge3" class="edge">
<title>upper:output&#45;&gt;writer:input</title>
<path fill="none" stroke="black" d="M635,-35.5C651.73,-35.5 654.46,-43.96 671,-46.5 718.79,-53.85 778.8,-93.21 787.44,-57.57"/>
<polygon fill="black" stroke="black" points="790.94,-57.81 788.5,-47.5 783.98,-57.08 790.94,-57.81"/>
</g>
</g>
</svg>
